<svg width="144px" height="24px" viewBox="0 0 144 24" xmlns="http://www.w3.org/2000/svg" class="sc-jvfriV kxdBff" aria-label="Monster" role="img"><g fill="none" fill-rule="evenodd"><path fill="#6E46AE" d="M68.249 23.807l-11.647-9.645v9.38h-4.63V4.347l11.647 9.645v-9.38h4.63v19.194M98.943 23.542H94.16V9.018h-4.356V4.613h13.495v4.405h-4.356v14.524M120.241 23.542h-11.987V4.612h11.864v4.406h-7.156v2.86h5.72v4.3h-5.72v2.958h7.28v4.406M136.45 14.29c1.018-.375 4.474-1.91 4.474-6.29 0-3.167-2.502-6.717-7.905-6.717h-6.996v22.258h4.818V14.75h.246l6.905 8.791h5.758l-7.3-9.25zm-2.72-3.855h-2.89V5.761h2.89c1.528 0 2.533 1.025 2.533 2.337 0 1.146-.849 2.337-2.533 2.337zM21.91.18L11.082 11.04.251.18V23.54H5.07v-11.76l6.01 6.032 6.012-6.032v11.76h4.819V.18M79.71 23.82c-4.328 0-6.577-2.426-6.953-2.794l2.43-3.446c.38.336 2.103 1.86 4.376 1.86 1.543 0 1.99-.739 1.99-1.33 0-.615-.46-1.16-2.09-1.768l-1.434-.535c-2.643-.986-4.325-2.83-4.325-5.568 0-3.358 2.69-5.908 6.51-5.908 3.443 0 5.372 1.655 5.585 1.842l-2.276 3.549c-.466-.32-1.752-1.02-3.176-1.02-1.332 0-1.94.568-1.94 1.25 0 .888.79 1.265 2.194 1.789l1.299.484c2.72 1.014 4.43 3.097 4.43 5.59 0 3.422-2.704 6.005-6.62 6.005"></path><path d="M36.94 4.334c-5.5 0-9.84 4.362-9.84 9.743s4.34 9.744 9.84 9.744c5.501 0 9.841-4.363 9.841-9.744 0-5.38-4.34-9.743-9.84-9.743m0 14.925c-2.9 0-5.13-2.32-5.13-5.182 0-2.862 2.23-5.182 5.13-5.182 2.899 0 5.13 2.32 5.13 5.182 0 2.862-2.231 5.182-5.13 5.182" fill="#00B6B4"></path></g></svg>
